<?xml version="1.0" encoding="utf-8"?>
<!-- Generator: Adobe Illustrator 24.1.0, SVG Export Plug-In . SVG Version: 6.00 Build 0)  -->
<svg version="1.1" id="图层_1" xmlns="http://www.w3.org/2000/svg" xmlns:xlink="http://www.w3.org/1999/xlink" x="0px" y="0px"
	 viewBox="0 0 960 960" style="enable-background:new 0 0 960 960;" xml:space="preserve">
<style type="text/css">
	.st0{fill:none;stroke:#000000;stroke-width:40;stroke-miterlimit:10;}
	.st1{fill:none;stroke:#000000;stroke-width:20;stroke-miterlimit:10;}
</style>
<path class="st0" d="M1872.2,67l108.3,34.5c21.8,7,36.6,27.2,36.6,50.1v49.6c0,6-4.4,11.1-10.4,12l-489.1,70.7
	c-26.5,3.8-53.6,2.2-79.4-4.8L1289,238.6v-47.3c0-36,26.5-66.6,62.1-71.7L1775.6,59C1808,54.3,1841,57.1,1872.2,67z"/>
<path class="st0" d="M2017.1,175.9v609.9c0,20.7-14.8,38.5-35.2,42.3l-422.7,78.4c-46.3,8.6-94.1,4.9-138.5-10.7l-105-36.9
	c-16-5.6-26.7-20.7-26.7-37.7v-576"/>
<line class="st1" x1="1486.1" y1="286.9" x2="1486.1" y2="907.1"/>
<ellipse class="st1" cx="1387.3" cy="570.7" rx="33" ry="42.3"/>
<ellipse class="st1" cx="1387.3" cy="707.1" rx="33" ry="42.3"/>
<image style="overflow:visible;enable-background:new    ;" width="824" height="1348" xlink:href="D:\产品\35. Smart Wall Outlet ZW1\05.15 墙插渲染\2.21.png"  transform="matrix(0.6117 0 0 0.6117 1594 67.7476)">
</image>
<g>
	<g>
		<path d="M699.4,901.3H260.6c-28.2,0-51.1-22.9-51.1-51.1V87.9c0-28.2,22.9-51.1,51.1-51.1h438.8c28.2,0,51.1,22.9,51.1,51.1v762.3
			C750.5,878.4,727.6,901.3,699.4,901.3z M260.6,76.8c-6.1,0-11.1,5-11.1,11.1v762.3c0,6.1,5,11.1,11.1,11.1h438.8
			c6.1,0,11.1-5,11.1-11.1V87.9c0-6.1-5-11.1-11.1-11.1H260.6z"/>
	</g>
	<g>
		<path d="M584.6,729H375c-15,0-27.2-12.2-27.2-27.2v-465c0-15,12.2-27.2,27.2-27.2h209.7c15,0,27.2,12.2,27.2,27.2l0,465.1
			C611.8,716.8,599.5,729,584.6,729z M375,229.6c-4,0-7.2,3.2-7.2,7.2v465c0,4,3.2,7.2,7.2,7.2h209.6c4,0,7.2-3.3,7.3-7.3V236.8
			c0-4-3.2-7.2-7.2-7.2H375z"/>
	</g>
	<g>
		<g>
			<path d="M447.9,316h-26.7v-75.3h26.7V316z M431.2,306h6.7v-55.3h-6.7V306z"/>
		</g>
		<g>
			<path d="M509.1,392.4h-57.4v-28.7c0-15.8,12.9-28.7,28.7-28.7s28.7,12.9,28.7,28.7V392.4z M461.7,382.4h37.4v-18.7
				c0-10.3-8.4-18.7-18.7-18.7s-18.7,8.4-18.7,18.7V382.4z"/>
		</g>
		<g>
			<path d="M538.6,316h-26.7v-75.3h26.7V316z M521.9,306h6.7v-55.3h-6.7V306z"/>
		</g>
		<g>
			<path d="M447.9,626.2h-26.7v-75.3h26.7V626.2z M431.2,616.2h6.7v-55.3h-6.7V616.2z"/>
		</g>
		<g>
			<path d="M509.1,700.7h-57.4V672c0-15.8,12.9-28.7,28.7-28.7s28.7,12.9,28.7,28.7V700.7z M461.7,690.7h37.4V672
				c0-10.3-8.4-18.7-18.7-18.7s-18.7,8.4-18.7,18.7V690.7z"/>
		</g>
		<g>
			<path d="M538.6,626.2h-26.7v-75.3h26.7V626.2z M521.9,616.2h6.7v-55.3h-6.7V616.2z"/>
		</g>
	</g>
	<g>
		<path d="M405.9,463.3c-16.8,0-30.4-13.6-30.4-30.4s13.6-30.4,30.4-30.4s30.4,13.6,30.4,30.4S422.7,463.3,405.9,463.3z
			 M405.9,412.5c-11.2,0-20.4,9.2-20.4,20.4s9.2,20.4,20.4,20.4c11.2,0,20.4-9.2,20.4-20.4S417.2,412.5,405.9,412.5z"/>
	</g>
	<g>
		<path d="M405.9,535.8c-16.8,0-30.4-13.6-30.4-30.4s13.6-30.4,30.4-30.4s30.4,13.6,30.4,30.4S422.7,535.8,405.9,535.8z M405.9,485
			c-11.2,0-20.4,9.2-20.4,20.4c0,11.2,9.2,20.4,20.4,20.4c11.2,0,20.4-9.2,20.4-20.4C426.3,494.2,417.2,485,405.9,485z"/>
	</g>
</g>
</svg>
