<?xml version="1.0" encoding="utf-8"?>
<!-- Generator: Adobe Illustrator 24.1.0, SVG Export Plug-In . SVG Version: 6.00 Build 0)  -->
<svg version="1.1" id="图层_1" xmlns="http://www.w3.org/2000/svg" xmlns:xlink="http://www.w3.org/1999/xlink" x="0px" y="0px"
	 viewBox="0 0 960 960" style="enable-background:new 0 0 960 960;" xml:space="preserve">
<style type="text/css">
	.st0{fill:#070002;}
</style>
<g>
	<path d="M358.1,701.3c-32.3,0-63.8-9.7-90.7-28.2L64.9,534.6c-12.6-8.5-19.7-23.4-18.6-38.7v-0.1L57,361.9
		c1.5-19.7,16.8-35.9,36.5-38.5L571,259.6c22.6-3,46.2,1.4,66.3,12.4l245.3,134.9c13.2,7.2,21.6,20.5,22.5,35.4l8.6,128.4
		c1.6,23.7-14.9,44.6-38.4,48.5l-491.1,80.1C375.5,700.7,366.8,701.3,358.1,701.3z M86.2,498.9c-0.1,1.1,0.4,2.1,1.2,2.6l0.1,0.1
		L290,640.2c25.7,17.6,56.9,24.6,87.8,19.6l491-80.1c3-0.5,5.2-3.2,5-6.3l-8.6-128.5c-0.1-1.3-0.8-2.3-1.9-2.9L618.1,307
		c-12.7-6.9-27.6-9.7-41.8-7.8l0,0L98.7,363c-1.1,0.1-1.8,0.9-1.9,2L86.2,498.9z"/>
</g>
<g>
	<path d="M361.7,527.1c-27.6,0-54.7-8-78.2-23.2L75.9,369l10.9-16.8l207.7,134.9c25.8,16.8,56.7,23.3,87.1,18.4L883,424.7l3.2,19.7
		l-501.4,80.8C377,526.5,369.3,527.1,361.7,527.1z"/>
</g>
<g>
	<g>
		<path class="st0" d="M502,415.3c23.5-3.7,29.1-4.6,52.5-8.2c2.6-0.5,4.9-0.4,7.2,0.6c3.2,1.4,3.1,3.6-0.2,4.5
			c-1,0.3-2.2,0.5-3.2,0.6c-45.7,7.1-73.6,11.5-119.3,18.7c-1.4,0.2-2.9,0.5-4.1,0.9c-2.7,1-3.4,2.6-2.4,4.1c1.1,1.8,3.7,3,7.3,3.4
			c3.7,0.5,6.8,0,8.9-1.3c1.1-0.8,2.3-1.5,4.6-1.5c2.6,0,4.7,0.5,6.3,1.6c1.5,1.2,1.4,2.2,0.1,3.2c-5.7,4.6-19,5.4-29.4,1.8
			c-7.2-2.4-10.9-5.7-10.4-9.7c0.4-3.9,4.7-6.6,12.4-7.8C455.3,422.7,478.7,419,502,415.3L502,415.3z"/>
	</g>
	<g>
		<path class="st0" d="M510.2,400.8c-16.5,2.7-33.1,5.1-49.6,7.8c-10.7,1.6-22.3-0.7-28-6c-5.3-4.7-2.3-10.3,7-12.7
			c4.9-1.4,10.2-1.3,16-0.6c3.6,0.6,5.6,2.1,5,3.6s-3.4,2.4-7,2c-5.1-0.5-8.7,0-10.5,1.8c-1.5,1.5-0.9,3.4,1.6,4.8
			c2.7,1.5,6.6,2.1,10.2,1.8c0.8-0.1,1.5-0.2,2.3-0.3c33.1-5.1,48.2-7.5,81.1-12.8c4.2-0.6,7.7,0,9.1,2c1.1,1.4,0.1,2.7-2.6,3.3
			c-0.8,0.1-1.7,0.3-2.4,0.5C525.8,398.4,526.9,398.3,510.2,400.8"/>
	</g>
	<g>
		<path class="st0" d="M433.7,422.3c-6,1-12.1,1.9-18.1,2.9c-8.3,1.3-17.8-0.1-24-3.5c-6.4-3.5-7.8-8.4-3.4-12
			c4.2-3.5,13.2-5,22.1-3.8c4.1,0.5,6.5,2,5.9,3.7c-0.5,1.7-3.4,2.4-7.5,2c-4.5-0.5-8.2,0.2-10,1.9c-1.7,1.5-1,3.5,1.7,5
			c2.8,1.5,6.9,2,10.9,1.5c12.3-1.9,24.7-3.8,36.9-5.8c3.4-0.5,6.8,0,8.3,1.5c1.8,1.7,0.8,3.2-2.8,3.8
			C447,420.3,440.4,421.3,433.7,422.3L433.7,422.3z"/>
	</g>
	<g>
		<path class="st0" d="M500.1,373.7c-3.2-3.6-6.4-6.9-9.5-10.4c-1.3-1.4-2.4-2.6-3.6-4c-0.9-0.8-0.5-1.4,1.3-1.6
			c4.5-0.6,8.8-1.3,13.2-2.1c2.2-0.3,3.4,0.1,4.5,1.2c3.6,4.1,7.4,8.2,11.2,12.2l1.7,1.8c2.2-0.3,4.1-0.6,6.1-1
			c2.2-0.3,3.3,0.3,2.9,1.4c-1.7,4.3-3.5,8.6-5.2,13.1c-0.4,1-1.5,1.2-3.4,0.5c-8.2-2.8-16.5-5.5-24.7-8.3c-0.8-0.1-1.8-0.8-1.7-1.1
			c0.1-0.4,1-0.7,1.8-0.9C496.2,374.2,498,374,500.1,373.7"/>
	</g>
	<g>
		<path class="st0" d="M465.5,366l9.5,10.4c1.3,1.4,2.4,2.6,3.6,4c0.9,0.8,0.5,1.4-1.3,1.6c-4.5,0.6-8.8,1.3-13.2,2.1
			c-2.2,0.3-3.4-0.1-4.5-1.2c-3.6-4.1-7.4-8.2-11.2-12.2l-1.7-1.8c-2.2,0.3-4.1,0.6-6.1,1c-2.2,0.3-3.3-0.3-2.9-1.4
			c1.7-4.3,3.5-8.6,5.2-13.1c0.4-1,1.5-1.2,3.4-0.5c8.2,2.8,16.5,5.5,24.7,8.3c0.8,0.1,1.8,0.8,1.7,1.1c-0.1,0.4-1,0.7-1.8,0.9
			C469.5,365.3,467.7,365.7,465.5,366"/>
	</g>
</g>
</svg>
