<?xml version="1.0" encoding="utf-8"?>
<!-- Generator: Adobe Illustrator 24.1.0, SVG Export Plug-In . SVG Version: 6.00 Build 0)  -->
<svg version="1.1" id="图层_1" xmlns="http://www.w3.org/2000/svg" xmlns:xlink="http://www.w3.org/1999/xlink" x="0px" y="0px"
	 viewBox="0 0 80 80" style="enable-background:new 0 0 80 80;" xml:space="preserve">
<g>
	<g>
		<path d="M47.2,32H35.1c-0.4,0-0.9-0.2-1.2-0.5s-0.5-0.8-0.4-1.2l1.3-25.1c0-0.6,0.4-1.1,1-1.2l0.3-0.1c3.3-0.8,6.7-0.8,9.9,0
			L46.3,4c0.6,0.1,1,0.6,1,1.2l1.3,25.1c0,0.4-0.1,0.9-0.4,1.2C48,31.8,47.6,32,47.2,32z M41.1,4.6c-1.6,0-3.1,0.2-4.7,0.6l-0.3,0.1
			l-1.3,25.1c0,0.1,0,0.2,0.1,0.2c0,0,0.1,0.1,0.2,0.1h12.1c0.1,0,0.2-0.1,0.2-0.1s0.1-0.1,0.1-0.2L46.2,5.2l-0.4-0.1
			C44.3,4.7,42.7,4.6,41.1,4.6z"/>
	</g>
	<g>
		<g>
			<path d="M44.5,52.6h-6.8c-0.6,0-1.1-0.4-1.2-1L36,31h10.2l-0.5,20.6C45.6,52.2,45.1,52.6,44.5,52.6z M37.9,51.3h6.5L44.7,32h-7.2
				L37.9,51.3z"/>
		</g>
	</g>
	<g>
		<path d="M41.1,75.9c-1.6,0-3-1.3-3-3V51.3H44V73C44,74.6,42.7,75.9,41.1,75.9z M39.5,52.6V73c0,0.9,0.7,1.6,1.6,1.6
			s1.6-0.7,1.6-1.6V52.6H39.5z"/>
	</g>
	<g>
		
			<rect x="24.5" y="17.1" transform="matrix(4.941763e-02 -0.9988 0.9988 4.941763e-02 18.4785 54.8417)" width="27.1" height="1.3"/>
	</g>
	<g>
		<rect x="43.6" y="4.2" transform="matrix(0.9988 -4.936115e-02 4.936115e-02 0.9988 -0.8222 2.206)" width="1.3" height="27.1"/>
	</g>
	<g>
		<rect x="40.5" y="3.7" width="1.3" height="27.5"/>
	</g>
</g>
</svg>
