<svg id="图层_1" data-name="图层 1" xmlns="http://www.w3.org/2000/svg" viewBox="0 0 960 960"><defs><style>.cls-1,.cls-2,.cls-3{fill:none;stroke:#000;stroke-miterlimit:10;}.cls-1{stroke-width:40px;}.cls-2{stroke-width:20px;}.cls-3{stroke-width:10px;}</style></defs><path class="cls-1" d="M375.56,65.06,330.73,643.41a18.44,18.44,0,0,0,15.7,19.68L372.82,667a734.49,734.49,0,0,0,212,.31l29.34-4.23a18.46,18.46,0,0,0,15.75-19.78l-47.8-578A18.43,18.43,0,0,0,568,48.85l-8.69-2.05a354.9,354.9,0,0,0-169.95,1.82h0A18.46,18.46,0,0,0,375.56,65.06Z"/><path class="cls-2" d="M539.5,747.59l-8,1.13A374.1,374.1,0,0,1,421,747.8h0a17.21,17.21,0,0,1-14.52-17V668.44H554.3v62.12A17.19,17.19,0,0,1,539.5,747.59Z"/><line class="cls-3" x1="444.21" y1="39.34" x2="406.46" y2="673.16"/><line class="cls-3" x1="516.55" y1="39.34" x2="554.3" y2="673.16"/><line class="cls-3" x1="480.38" y1="45.63" x2="480.38" y2="674.73"/><line class="cls-2" x1="524.42" y1="949" x2="524.42" y2="752"/><line class="cls-2" x1="452.07" y1="752" x2="452.07" y2="947.67"/></svg>