<?xml version="1.0" encoding="utf-8"?>
<!-- Generator: Adobe Illustrator 24.1.0, SVG Export Plug-In . SVG Version: 6.00 Build 0)  -->
<svg version="1.1" id="图层_1" xmlns="http://www.w3.org/2000/svg" xmlns:xlink="http://www.w3.org/1999/xlink" x="0px" y="0px"
	 viewBox="0 0 80 80" style="enable-background:new 0 0 80 80;" xml:space="preserve">
<g>
	<g>
		<path d="M47.8,46H32.3c-1,0-2-0.4-2.7-1.2c-0.7-0.7-1-1.7-1-2.7l2-35.4c0.1-1.2,1-2.3,2.2-2.6c4.7-1.1,9.6-1.1,14.3,0
			c1.2,0.3,2.1,1.4,2.2,2.6l2,35.4c0.1,1-0.3,2-1,2.7C49.7,45.5,48.8,46,47.8,46z M33.6,7l-2,35.3c0,0.3,0.1,0.4,0.2,0.5
			c0.1,0.1,0.2,0.2,0.5,0.2h15.5c0.2,0,0.4-0.1,0.5-0.2c0.1-0.1,0.2-0.2,0.2-0.5L46.4,7C42.2,6,37.8,6,33.6,7z"/>
	</g>
</g>
<g>
	<rect x="39.5" y="4.8" width="1" height="39.7"/>
</g>
<g>
	<rect x="16" y="24.1" transform="matrix(2.733353e-02 -0.9996 0.9996 2.733353e-02 10.309 59.8106)" width="39.7" height="1"/>
</g>
<g>
	<rect x="43.7" y="4.8" transform="matrix(0.9996 -2.828001e-02 2.828001e-02 0.9996 -0.6783 1.2584)" width="1" height="39.7"/>
</g>
<g>
	<path d="M43.4,73.2h-6.7c-1.3,0-2.4-1-2.4-2.3l-1.4-27.5h14.4l-1.4,27.5C45.7,72.2,44.6,73.2,43.4,73.2z M34.9,45.5l1.3,25.4
		c0,0.2,0.2,0.4,0.4,0.4h6.7c0.2,0,0.4-0.2,0.4-0.4l1.3-25.4H34.9z"/>
</g>
<g>
	<path d="M43.1,71.4c0-0.3-0.1-0.9-0.1-1.9c-0.3-9.2-1.3-13.9-3-13.9s-2.7,4.7-3,13.9c0,1-0.1,1.6-0.1,1.9l-1-0.1
		c0-0.2,0.1-0.9,0.1-1.8c0.3-7.7,1-14.8,4-14.8s3.7,7.1,4,14.8c0,0.9,0.1,1.6,0.1,1.8L43.1,71.4z"/>
</g>
<g>
	<polygon points="44,78.6 42,78.6 42,73.2 37.6,73.2 37.6,78.6 35.6,78.6 35.6,71.2 44,71.2 	"/>
</g>
</svg>
