<?xml version="1.0" encoding="utf-8"?>
<!-- Generator: Adobe Illustrator 24.1.0, SVG Export Plug-In . SVG Version: 6.00 Build 0)  -->
<svg version="1.1" id="图层_1" xmlns="http://www.w3.org/2000/svg" xmlns:xlink="http://www.w3.org/1999/xlink" x="0px" y="0px"
	 viewBox="0 0 960 960" style="enable-background:new 0 0 960 960;" xml:space="preserve">
<style type="text/css">
	.st0{fill:none;stroke:#000000;stroke-width:22;stroke-miterlimit:10;}
</style>
<g>
	<g>
		<path class="st0" d="M563.8,365.7"/>
	</g>
	<g>
		<path d="M899,323.6c-10.3-8.8-22.7-14.7-35.8-17.1c-8.8-1.6-17.9-1.7-26.9-0.1l-31.7,5.5l-59.7,10.4
			c-53.4,9.3-92.2,55.4-92.2,109.6v183.7c0,11,2.4,21.7,7,31.3c4.7,9.9,11.5,18.7,20.3,25.8c3.5,2.8,7.2,5.3,11.1,7.4
			c10.7,5.8,22.6,8.8,34.7,8.8c5.2,0,10.5-0.6,15.7-1.9l84.4-18.4c27.4-6,52.2-21.3,69.9-43c17.7-21.7,27.7-49.1,28-77.1l2.1-165.7
			C926.2,360,916.4,338.4,899,323.6z M904.2,548.5c-0.6,49.1-34.5,90.6-82.4,101.1L737.4,668c-16,3.5-32.4-0.4-45.1-10.6
			c-12.7-10.3-20-25.5-20-41.8V432c0-44.7,31.9-82.6,75.9-90.2l91.4-15.9c3.3-0.5,6.6-0.8,9.8-0.8c3.8,0,7.5,0.4,11.2,1.1l0.1,0
			c0.6,0.1,1.3,0.3,1.9,0.4c8.6,2,16.8,6.1,23.8,12.2c12.9,11,20.2,27,20,44L904.2,548.5z"/>
	</g>
	<g>
		<path d="M580.6,615.1c2,1.2,4.1,2.2,6.2,3.2v0.8c0,7-2.6,13.4-6.7,17.5c-2-0.9-4-1.9-6-2.9c3.8-2.7,6.5-8.4,6.5-14.5V615.1z"/>
		<path d="M698.2,662l-7.1,18.1l-78.6-30.8l-5.8-2.3l-11.7-4.6l-5.8-2.3c3.8-4.9,6.2-11.3,6.7-18.3l5.9,2.3l11.7,4.6l5.9,2.3
			l40.3,15.8L698.2,662z"/>
		<polygon points="526.7,416.5 546.3,414.2 546.3,420.3 526.7,422.6 		"/>
		<path d="M867.4,307.6l-4.9,19l0,0.1l-1.8-0.5l-0.1,0l-55.9-14.3l-67.3-17.2c-4.1-1.1-8.3-1.3-12.6-0.8l-100.8,12.3
			c-35.1,4.3-63.4,28.9-73.6,61.3c-1.9,6-3.2,12.4-3.7,18.9c-0.2,1.9-0.3,3.9-0.3,5.8c0,0.6,0,1.2,0,1.8v4.7l-19.6,2.3v-7.1
			c0-1.7,0-3.4,0.1-5.1l7.7-0.9l-7.4-2.8c0.7-8.4,2.3-16.6,4.9-24.4c12.6-39.1,47-68.8,89.7-74l100.8-12.3
			c6.7-0.8,13.3-0.4,19.8,1.3l121,30.9L867.4,307.6z"/>
	</g>
	<g>
		<path d="M804.4,399.1c-2-1.7-4.6-2.4-7.2-2l-19,3.2c-4.3,0.7-7.4,4.4-7.4,8.7v48.1c0,2.7,1.2,5.2,3.3,6.9c1.6,1.2,3.5,1.9,5.5,1.9
			c0.6,0,1.3-0.1,2-0.1l19-4.3c4.1-0.9,6.9-4.4,6.9-8.6v-47C807.5,403.2,806.4,400.8,804.4,399.1z M797.6,452l-17,3.8v-46l17-2.8
			V452z"/>
	</g>
	<g>
		<path d="M749.5,559.1c-2-1.6-4.6-2.2-7.2-1.7l-29.9,6.3c-4,0.8-6.9,4.3-6.9,8.4v23.8c0,2.7,1.2,5.2,3.3,6.8
			c1.5,1.3,3.4,1.9,5.3,1.9c0.6,0,1.3-0.1,2.1-0.4l29.9-7.2c3.9-1,6.6-4.4,6.6-8.4v-22.8C752.7,563.2,751.5,560.7,749.5,559.1z
			 M742.7,587.8l-27.4,6.6v-21.2l27.4-5.8V587.8z"/>
	</g>
	<g>
		<path d="M864.5,534c-2-1.6-4.6-2.2-7.2-1.7l-29.9,6.3c-4,0.8-6.9,4.3-6.9,8.4v23.8c0,2.7,1.2,5.2,3.3,6.8c1.5,1.3,3.4,1.9,5.3,1.9
			c0.6,0,1.3-0.1,2.1-0.4l29.9-7.2c3.9-1,6.6-4.4,6.6-8.4v-22.8C867.7,538.1,866.5,535.6,864.5,534z M857.7,562.7l-27.4,6.6v-21.2
			l27.4-5.8V562.7z"/>
	</g>
</g>
<g>
	<g>
		<g>
			<path d="M620.5,433.7v185.4c0,4.1-0.4,8.1-1.2,12c-1.3,6.6-3.6,12.7-6.9,18.2c-8.1,13.9-21.6,23.6-37.5,25.5l-377.2,44.4
				c-1.9,0.2-3.7,0.3-5.4,0.3c-9.2,0-16.6-3-24.9-6.3c-1.6-0.7-3.4-1.4-5.2-2.1h0c-2.2-0.9-4.7-1.8-7.3-2.7l3.9-11.4l4.1-11.8l0,0
				c1.2,0.4,2.4,0.8,3.5,1.3l0,0c1.9,0.7,3.7,1.4,5.3,2l0.2,0.1l0.1,0c1.6,0.6,3.2,1.3,4.6,1.9c0.8,0.3,1.6,0.6,2.3,0.9
				c7.3,2.9,11,4,15.9,3.5l377.2-44.4c6.8-0.8,12.8-4.6,17.1-10.2c3.8-4.9,6.2-11.3,6.7-18.3c0.1-0.9,0.1-1.9,0.1-2.9V433.7
				c0-10.4-2.5-21.6-18.4-29.9c-4.2-2.2-9.3-4.2-15.5-5.9l0.3-1.2l3.5-12.6l2.7-9.8c0.2,0,0.4,0.1,0.6,0.2l0,0
				C603.3,383.9,620.5,403.9,620.5,433.7z"/>
		</g>
	</g>
	<g>
		<g>
			<path d="M569.6,411.5c-0.5,0-1.1,0-1.6,0.1l-21.7,2.6l-19.6,2.3L190.8,456c-8.9,1.1-15.8,10.8-15.8,22.2v185.3
				c0,13.3,8.9,22.3,17.2,22.3c0.5,0,1.1,0,1.6-0.1L571,641.3c3.4-0.4,6.6-2.1,9.1-4.7c4.1-4.1,6.7-10.5,6.7-17.5V433.8
				C586.8,420.5,577.9,411.5,569.6,411.5z M580.6,619.2c0,6.1-2.7,11.8-6.5,14.5c-1.2,0.9-2.5,1.5-3.9,1.6L193,679.7
				c-0.3,0.1-0.6,0.1-0.9,0.1c-5.2,0-11.1-6.7-11.1-16.2V478.2c0-8.1,4.8-15.4,10.4-16.1l335.3-39.5l19.6-2.3l22.3-2.6
				c0.3-0.1,0.6-0.1,0.9-0.1c5.3,0,11.1,6.6,11.1,16.2V619.2z"/>
		</g>
	</g>
	<g>
		<g>
			<path d="M586.2,380.8l-2.2,5.8l-4.3,11.4l-2.2,5.8l0,0l-18.1-6.7h0l-13.2-4.9l-11.8-4.4h0l-7.4-2.8L460,360
				c-6.3-2.3-13.1-3.2-19.7-2.4l-328,38.7c-21.2,2.5-37.2,20.5-37.3,41.9v203.3c0,7.1,4.5,13.4,11.1,15.8l64,23.2l12.9,4.7l3.6,1.3
				l5.4,2l0.1,0l7,2.5l-0.1,0.2l-1.9,5.3l-4.3,11.8l-2,5.7l-8.5-3.1l-84.5-30.7c-16.3-5.9-27.2-21.5-27.2-38.9V438.2
				c0-33.8,25.3-62.3,58.9-66.3l328-38.7c10.5-1.2,21.2,0.1,31.1,3.8l63.3,23.6l18.4,6.9l18.9,7L586.2,380.8z"/>
		</g>
	</g>
	<g>
		<g>
			<path d="M351.5,484.8c-1.2-1.1-2.6-2-4.1-2.7c-1.5-0.6-3.1-0.9-4.7-0.9c-0.8,0-1.7,0.1-2.5,0.3l-13.7,2.9
				c-5.7,1.2-9.9,6.3-9.9,12.2v65.3c0,3.3,1.3,6.4,3.6,8.8c2.3,2.4,5.5,3.7,8.8,3.7c0.6,0,1.3-0.1,2-0.4l13.7-2.2
				c6-1,10.4-6.2,10.4-12.3v-65.9C355.1,490.3,353.9,487.2,351.5,484.8z M342.9,559.8c0,0.1,0,0.2-0.1,0.2l-13.7,2.2H329
				c0,0,0,0-0.1-0.1c-0.1,0-0.1-0.1-0.1-0.1v-65.3c0-0.1,0-0.2,0.1-0.1l13.8-2.9c0,0,0,0,0.1,0.1c0.1,0,0.1,0.1,0.1,0.1V559.8z"/>
		</g>
	</g>
	<g>
		<path d="M453.9,485.3c-2.9-2.4-6.8-3.4-10.7-2.7l-13.7,2.5c-5.9,1.1-10.1,5.8-10.1,11.4v56.7c0,3.2,1.5,6.3,4,8.5
			c2.3,2,5.4,3.1,8.5,3.1c0.6,0,1.3,0,1.8-0.1l13.7-1.9c6.2-0.9,10.6-5.7,10.6-11.5V494C458,490.7,456.5,487.5,453.9,485.3z
			 M445.8,550.7l-13.7,1.9h-0.4v-55.4l13.7-2.5h0.4V550.7z"/>
	</g>
	<g>
		<g>
			<path d="M427.3,598.4c-1.4-18.2-17.4-31.8-35.6-30.4c-17.1,1.4-30.5,15.9-30.5,33v37c0,0.4,0.1,0.7,0.1,1.1
				c0.3,2.3,1.4,4.4,3.3,5.9c1.6,1.2,3.5,1.9,5.5,1.9c0.4,0,0.7,0,1-0.1l48.4-5.5c4.5-0.5,7.9-4.3,7.9-8.8V601
				C427.4,600.2,427.4,599.3,427.3,598.4z M415.2,629.6l-41.7,4.7v-33.2c0-10.8,8.4-19.9,19.2-20.8c0.6-0.1,1.1-0.1,1.7-0.1
				c10.7,0,19.9,8.3,20.7,19.1c0.1,0.6,0.1,1.1,0.1,1.7V629.6z"/>
		</g>
	</g>
	<g>
		<g>
			<path d="M597.5,394.8c-4.1-3.6-8.6-6.4-13.5-8.2c-5.7-2.2-11.9-3.1-18.1-2.5c-0.4,0-0.8,0.1-1.2,0.1l-18.1,2.1l-12.1,1.4h0
				l-7.7,0.9l-339.3,39.9c-22.8,2.7-40.1,24-40.1,49.6v185.3c0,5.9,0.9,11.7,2.6,17c2,6.1,5,11.6,8.9,16.5c1.6,2,3.4,3.8,5.3,5.5
				c2.7,2.4,5.6,4.4,8.6,6c6,3.2,12.6,4.9,19.4,4.9c1.6,0,3.2-0.1,4.8-0.3l377.2-44.3c13.6-1.6,25.3-9.9,32.5-21.8
				c3.3-5.4,5.6-11.6,6.8-18.2c0.5-3.1,0.8-6.3,0.8-9.6V433.8C614.3,418.5,608.2,404.3,597.5,394.8z M595,642.5
				c-5.3,7.6-13.1,12.8-22.2,13.9l-377.2,44.4c-6.4,0.8-12.9-0.7-18.5-4.1c-1.6-1-3.2-2.1-4.7-3.5c-2.2-2-4.2-4.2-5.8-6.7
				c0,0-0.1,0-0.1-0.1l0,0c-4.4-6.5-6.8-14.6-6.8-23.1V478.1c0-19.3,12.6-35.4,29.3-37.4l337.7-39.8l19.6-2.3l13.2-1.6h0l2.9-0.3
				l3.7-0.4c1.2-0.1,2.3-0.2,3.4-0.2c3.5,0,7,0.7,10.3,1.9c3.4,1.3,6.7,3.3,9.6,5.9c8.1,7.2,12.7,18.1,12.7,29.8V619
				c0,1.8-0.1,3.5-0.3,5.3C601,631.1,598.6,637.3,595,642.5z"/>
		</g>
	</g>
</g>
<path class="st0" d="M623.4,435.9"/>
</svg>
