<?xml version="1.0" encoding="utf-8"?>
<!-- Generator: Adobe Illustrator 24.1.0, SVG Export Plug-In . SVG Version: 6.00 Build 0)  -->
<svg version="1.1" id="图层_1" xmlns="http://www.w3.org/2000/svg" xmlns:xlink="http://www.w3.org/1999/xlink" x="0px" y="0px"
	 viewBox="0 0 120 120" style="enable-background:new 0 0 120 120;" xml:space="preserve">
<g>
	<path d="M95.8,115H24.2C13.6,115,5,106.4,5,95.8V24.2C5,13.6,13.6,5,24.2,5h71.7c10.6,0,19.1,8.6,19.1,19.1v71.7
		C115,106.4,106.4,115,95.8,115z M24.2,11C16.9,11,11,16.9,11,24.2v71.7c0,7.2,5.9,13.1,13.1,13.1h71.7c7.2,0,13.1-5.9,13.1-13.1
		V24.2c0-7.2-5.9-13.1-13.1-13.1H24.2V11z"/>
</g>
<g>
	<path d="M78.3,72.4v-4.1c0-0.5-0.4-0.9-0.9-0.9c-0.5,0-0.9,0.4-0.9,0.9v4.1c0,2.2-1.8,4.1-4.1,4.1h-4.1c-0.5,0-0.9,0.4-0.9,0.9
		c0,0.5,0.4,0.9,0.9,0.9h4.1C75.7,78.3,78.3,75.7,78.3,72.4"/>
	<path d="M52.7,77.4c0-0.2-0.1-0.5-0.3-0.7c-0.2-0.2-0.4-0.3-0.7-0.3h-4.1c-2.2,0-4.1-1.8-4.1-4.1v-4.1c0-0.5-0.4-0.9-0.9-0.9
		c-0.5,0-0.9,0.4-0.9,0.9v4.1c0,3.3,2.7,5.9,5.9,5.9h4.1c0.2,0,0.5-0.1,0.7-0.3C52.6,77.9,52.7,77.6,52.7,77.4"/>
	<path d="M43.5,51.7v-4.1c0-2.2,1.8-4.1,4.1-4.1h4.1c0.5,0,0.9-0.4,0.9-0.9c0-0.5-0.4-0.9-0.9-0.9h-4.1c-3.3,0-5.9,2.7-5.9,5.9v4.1
		c0,0.5,0.4,0.9,0.9,0.9C43.1,52.7,43.5,52.2,43.5,51.7"/>
	<path d="M78.3,51.7v-4.1c0-3.3-2.7-5.9-5.9-5.9h-4.1c-0.5,0-0.9,0.4-0.9,0.9c0,0.5,0.4,0.9,0.9,0.9h4.1c2.2,0,4.1,1.8,4.1,4.1v4.1
		c0,0.5,0.4,0.9,0.9,0.9C77.9,52.7,78.3,52.2,78.3,51.7"/>
	<path d="M61.7,52.8c2,0,3.7,1.5,3.7,3.4v7c0,1.5-1.2,2.8-2.7,3.2v7.3c0,0.3-0.2,0.6-0.5,0.6h-4.4c-0.3,0-0.5-0.3-0.5-0.6v-7.3
		c-1.6-0.4-2.7-1.7-2.7-3.2v-7c0-1.9,1.7-3.4,3.7-3.4H61.7z"/>
	<path d="M60,45.7c2,0,3.6,1.6,3.6,3.6c0,2-1.6,3.6-3.6,3.6c-2,0-3.6-1.6-3.6-3.6C56.4,47.3,58,45.7,60,45.7"/>
	<path d="M48.4,55.3c0,0.1,0,0.2-0.1,0.3c-1.2,1.2-1.8,2.8-1.8,4.5c0,1.6,0.6,3.1,1.7,4.4c0.1,0.1,0.1,0.2,0.1,0.3
		c0,0.1-0.1,0.2-0.2,0.3c-0.2,0.2-0.5,0.2-0.7,0c-1.2-1.4-1.9-3.1-1.9-5c0-1.9,0.7-3.7,2-5.1c0.2-0.2,0.5-0.2,0.7,0
		C48.3,55,48.4,55.1,48.4,55.3 M50.4,57.2c0,0.1,0,0.2-0.1,0.3c-0.7,0.7-1,1.6-1,2.6c0,0.9,0.3,1.8,0.9,2.5c0.2,0.2,0.2,0.5,0,0.7
		c-0.2,0.2-0.5,0.2-0.7,0c-0.8-0.9-1.2-2-1.2-3.1c0-1.2,0.4-2.3,1.3-3.2c0.2-0.2,0.5-0.2,0.7,0C50.4,57,50.4,57.1,50.4,57.2"/>
	<path d="M71.6,64.7c0-0.1,0-0.2,0.1-0.3c1.2-1.2,1.8-2.8,1.8-4.5c0-1.6-0.6-3.1-1.7-4.4c-0.1-0.1-0.1-0.2-0.1-0.3
		c0-0.1,0.1-0.2,0.2-0.3c0.2-0.2,0.5-0.2,0.7,0c1.2,1.4,1.9,3.1,1.9,5c0,1.9-0.7,3.7-2,5.1c-0.2,0.2-0.5,0.2-0.7,0
		C71.7,65,71.6,64.9,71.6,64.7 M69.6,62.8c0-0.1,0-0.2,0.1-0.3c0.7-0.7,1-1.6,1-2.6c0-0.9-0.3-1.8-0.9-2.5c-0.2-0.2-0.2-0.5,0-0.7
		c0.2-0.2,0.5-0.2,0.7,0c0.8,0.9,1.2,2,1.2,3.1c0,1.2-0.4,2.3-1.3,3.2c-0.2,0.2-0.5,0.2-0.7,0C69.6,63,69.6,62.9,69.6,62.8"/>
</g>
</svg>
