<?xml version="1.0" encoding="utf-8"?>
<!-- Generator: Adobe Illustrator 24.1.0, SVG Export Plug-In . SVG Version: 6.00 Build 0)  -->
<svg version="1.1" id="图层_1" xmlns="http://www.w3.org/2000/svg" xmlns:xlink="http://www.w3.org/1999/xlink" x="0px" y="0px"
	 viewBox="0 0 80 80" style="enable-background:new 0 0 80 80;" xml:space="preserve">
<style type="text/css">
	.st0{fill:#040000;}
</style>
<g>
	<path d="M56.4,47c-2.3,0-4.1-1.8-4.1-4.1s1.8-4.1,4.1-4.1s4.1,1.8,4.1,4.1S58.7,47,56.4,47z M56.4,39.6c-1.8,0-3.3,1.5-3.3,3.3
		s1.5,3.3,3.3,3.3s3.3-1.5,3.3-3.3S58.3,39.6,56.4,39.6z"/>
</g>
<g>
	<path d="M56.4,32.3c-0.5,0-0.9-0.4-0.9-0.9s0.4-0.9,0.9-0.9s0.9,0.4,0.9,0.9S56.9,32.3,56.4,32.3z M56.4,30.8
		c-0.3,0-0.6,0.3-0.6,0.6s0.3,0.6,0.6,0.6s0.6-0.3,0.6-0.6S56.8,30.8,56.4,30.8z"/>
</g>
<g>
	<path d="M18.6,63L17.1,63l-1.6-0.2L14,62.3l-1.5-0.5l-1.4-0.7l-1.3-0.8l-1.2-1l-1.1-1.1l-0.5-0.6l-1-1.3L5.1,55l-0.7-1.4l-0.5-1.5
		l-0.4-1.5L3.4,49l-0.1-0.8l0-0.8l0.1-1.6l0.1-0.8l0.3-1.5l0.5-1.5L5,40.7l0.8-1.3l2.3-3.7l2.2-3.7l2-3.8l1.9-3.9l0.9-2l1.1-2.4
		l0.6-0.6l0.7-0.5l0.8-0.2l0.3,0l0.9,0.1l0.8,0.4l0.6,0.6l0.4,0.6l0.9,2.1l1.8,3.9l2,3.9l2.1,3.8l2.2,3.7l1.6,2.4l0.7,1.4l0.6,1.5
		l0.4,1.5l0.2,0.8l0.2,1.6l0,0.8l0,1.6l-0.2,1.6l-0.4,1.5l-0.5,1.5L32.1,55l-0.8,1.4l-0.9,1.3l-1.1,1.2l-1.2,1l-1.3,0.9l-1.4,0.8
		L24,62.1l-1.5,0.5L21,62.9L19.4,63L18.6,63z M17.9,20.8L17.8,21l-0.8,2l-1.8,4l-1,2l-2.1,3.9l-2.2,3.8l-3.1,4.9l-0.6,1.2l-0.4,1.3
		l-0.3,1.3l-0.2,1.4l0,0.7l0,1.4l0.2,1.4l0.3,1.3l0.5,1.3l0.6,1.2l0.7,1.2l0.8,1.1l0.9,1l1,0.9l1.1,0.8l1.2,0.7l1.3,0.5l1.3,0.4
		l1.3,0.3L18,61l0.7,0L20,61l1.4-0.2l1.3-0.3l1.3-0.5l1.2-0.6l1.2-0.7l1.1-0.8l1-1l0.9-1l0.8-1.1l0.6-1.2l0.5-1.3l0.4-1.3l0.2-1.3
		l0.1-1.4l0-0.7l-0.1-1.4l-0.2-1.3l-0.4-1.3l-0.5-1.3l-0.6-1.2l-2.7-4.3l-2.2-3.8L23.1,29l-1-2l-1.8-4l-1.1-2.4l-0.3-0.2l-0.3,0
		l-0.4,0.1L17.9,20.8z"/>
</g>
<g>
	<path class="st0" d="M21.2,30.2h-5.1c-0.4,0-0.7-0.2-0.9-0.5c-0.2-0.4-0.3-0.9-0.1-1.3l2.6-5.7c0.2-0.4,0.6-0.7,1-0.7
		c0.4,0,0.8,0.2,1,0.7l2.5,5.7c0.2,0.4,0.2,0.9-0.1,1.3C21.9,30,21.5,30.2,21.2,30.2z M18.7,22.7C18.7,22.7,18.7,22.7,18.7,22.7
		c-0.2,0-0.3,0.1-0.4,0.3c0,0,0,0,0,0l-2.6,5.7c-0.1,0.2,0,0.4,0.1,0.6c0,0.1,0.1,0.2,0.3,0.2h5.1c0.2,0,0.3-0.1,0.3-0.2
		c0.1-0.2,0.1-0.4,0-0.6L19,22.9C18.9,22.7,18.8,22.7,18.7,22.7z M18,22.8L18,22.8L18,22.8z"/>
</g>
<g>
	<path d="M17.2,28.6c0,0.3-0.2,0.5-0.5,0.5c-0.3,0-0.5-0.2-0.5-0.5c0-0.3,0.2-0.5,0.5-0.5C17,28.1,17.2,28.3,17.2,28.6z"/>
</g>
<g>
	<path d="M21,28.6c0,0.3-0.2,0.5-0.5,0.5c-0.3,0-0.5-0.2-0.5-0.5c0-0.3,0.2-0.5,0.5-0.5C20.8,28.1,21,28.3,21,28.6z"/>
</g>
<g>
	<path d="M56.5,61.6c-10.5,0-19-8.5-19-19s8.5-19,19-19s19,8.5,19,19S67,61.6,56.5,61.6z M56.5,25.6c-9.4,0-17,7.6-17,17
		c0,9.4,7.6,17,17,17c9.4,0,17-7.6,17-17C73.5,33.2,65.9,25.6,56.5,25.6z"/>
</g>
</svg>
