<?xml version="1.0" encoding="utf-8"?>
<!-- Generator: Adobe Illustrator 24.1.0, SVG Export Plug-In . SVG Version: 6.00 Build 0)  -->
<svg version="1.1" id="图层_1" xmlns="http://www.w3.org/2000/svg" xmlns:xlink="http://www.w3.org/1999/xlink" x="0px" y="0px"
	 viewBox="0 0 960 960" style="enable-background:new 0 0 960 960;" xml:space="preserve">
<g>
	<path d="M808.9,141.6c-0.8-18.5-14.1-33.8-32.2-37.3l-10.1-1.9c-94.5-17.7-191.1-26.7-287.3-26.7c-0.3,0-0.5,0-0.8,0
		c-95.9,0-192.3,8.9-286.6,26.4l-12.8,2.4c-18.4,3.4-31.8,18.9-32.4,37.5l-22.4,581.5l0,0.8c0,0.8,0,2.3,0.3,4.2l3.9,37.4
		c1.3,12.1,7.5,23.2,17.1,30.4l74.6,56.9c12.6,9.6,28.2,14.9,44,14.9h430.6c15.7,0,31.2-5.2,43.6-14.6l71.4-53.8
		c8.9-6.6,14.8-16.4,16.9-27.4l7.1-40.7l0.1-1c0.1-1.1,0.4-2.8,0.4-5v-0.4L808.9,141.6z M186.7,143.8l12.6-2.4
		c185.8-34.6,374.2-34.5,559.9,0.3l9.8,1.9l24.5,565c-46.3-7.5-156.5-22.2-313.8-22.2c-158,0-268.6,12.9-314.6,19.4L186.7,143.8z
		 M785.7,767.7l-71.5,53.8c-5.6,4.2-12.5,6.5-19.5,6.5H264.1c-7.1,0-14.1-2.4-19.8-6.7l-74.6-56.9l-0.1-0.1c-1-0.8-1.4-1.9-1.5-2.7
		l-1.6-15.7c41.8-6,153.9-19.7,313-19.7c156.9,0,267.7,15.2,310.5,22.2l-2.9,16.5C787,766.2,786.5,767.1,785.7,767.7z"/>
	<path d="M380.1,378.5h198.3c33.5,0,60.7-27.2,60.7-60.7c0-33.5-27.2-60.7-60.7-60.7H380.1c-33.5,0-60.7,27.2-60.7,60.7
		C319.4,351.3,346.6,378.5,380.1,378.5z M380.1,277.1h198.3c22.4,0,40.7,18.3,40.7,40.7c0,22.4-18.3,40.7-40.7,40.7H380.1
		c-22.4,0-40.7-18.3-40.7-40.7C339.4,295.4,357.7,277.1,380.1,277.1z"/>
	<path d="M479.3,399.4c-39.3,0-71.3,26.4-71.3,58.8c0,32.4,32,58.8,71.3,58.8c39.3,0,71.3-26.4,71.3-58.8
		C550.6,425.8,518.6,399.4,479.3,399.4z M479.3,497c-28.3,0-51.3-17.4-51.3-38.8s23-38.8,51.3-38.8c28.3,0,51.3,17.4,51.3,38.8
		S507.6,497,479.3,497z"/>
	<path d="M388.2,342.8h8.4v-51.4h-6.3c-1.7,1.8-3.9,3.5-6.5,5c-2.6,1.4-5,2.4-7.3,3v8.4c4.8-1.4,8.6-3.5,11.7-6.3V342.8z"/>
	<path d="M564.4,319.7c-6,4.1-9.9,7.3-11.8,9.4c-3.5,3.9-5.1,8.4-5.1,13.7h35.9v-7.4H558c1.2-2.6,4.3-5.6,9.6-9.1
		c5-3.4,8.6-6.1,10.7-8.3c3.3-3.7,5-7.7,5-12.2c0-4.6-1.6-8.3-4.8-11.2c-3.2-2.9-7.3-4.3-12.3-4.3c-5.5,0-10,1.9-13.4,5.6
		c-3.3,3.5-5,8.1-5,13.9h8.4c0.1-4,1-7.1,2.6-9.1c1.6-2.2,4-3.2,7.1-3.2c3,0,5.2,0.6,6.7,2c1.4,1.4,2.2,3.5,2.2,6.3
		c0,2.9-1.2,5.6-3.4,8.1C570,315.4,567.7,317.4,564.4,319.7z"/>
	<path d="M487.7,458.2c5.7-1.9,8.6-5.6,8.6-11.2c0-4.5-1.6-7.9-4.7-10.4c-3.2-2.5-7.4-3.7-12.6-3.7c-5,0-9.2,1.4-12.5,4.2
		c-3.5,2.9-5.3,6.9-5.8,12.1h8.3c0.3-3.1,1.3-5.4,3-6.9c1.7-1.5,4-2.2,7-2.2c3,0,5.2,0.6,6.7,1.9c1.4,1.3,2.1,3.2,2.1,5.7
		c0,2.5-0.8,4.5-2.3,5.8c-1.6,1.3-3.9,1.9-6.9,1.9H475v6.3h3.6c3.3,0,5.8,0.6,7.6,2.1c1.7,1.4,2.7,3.5,2.7,6.5
		c0,2.4-0.9,4.5-2.5,6.1c-1.9,1.8-4.5,2.7-7.7,2.7c-3,0-5.3-0.9-7.1-2.5c-2-1.8-3-4.4-3.2-7.7h-8.6c0.4,5.8,2.4,10.2,6,13.2
		c3.2,2.7,7.6,4.1,12.9,4.1c5.6,0,10.2-1.6,13.6-4.7c3.3-3,5-6.9,5-11.7c0-3-0.9-5.5-2.6-7.5C493.1,460.5,490.7,459.2,487.7,458.2z"
		/>
	<path d="M536.2,757.2l-11.4-8.8l-0.6-0.4c-2.7-1.8-5.5-2.7-8.5-2.7h-89.8c-4.2,0-8.2,1.8-11,4.9l-8.3,9.1l-0.1,0.1
		c-2.5,2.8-3.8,6.3-3.8,9.9v10.4c0,4,1.7,7.9,4.5,10.7c2.8,2.7,6.4,4.1,10.2,4.1c0.1,0,0.2,0,0.3,0h109.4c8.2,0,14.9-6.7,14.9-14.9
		V769C542,764.3,539.8,759.9,536.2,757.2z M522,774.5h-99.3v-3.2l5.5-6H514l8,6.2V774.5z"/>
</g>
</svg>
