<?xml version="1.0" encoding="utf-8"?>
<!-- Generator: Adobe Illustrator 24.1.0, SVG Export Plug-In . SVG Version: 6.00 Build 0)  -->
<svg version="1.1" id="图层_1" xmlns="http://www.w3.org/2000/svg" xmlns:xlink="http://www.w3.org/1999/xlink" x="0px" y="0px"
	 viewBox="0 0 80 80" style="enable-background:new 0 0 80 80;" xml:space="preserve">
<style type="text/css">
	.st0{fill:#040000;}
</style>
<g>
	<g>
		<path d="M39.9,76.2h-2.4L35,75.9l-2.4-0.8l-2.4-0.8l-2.2-1.1l-2.1-1.3L24,70.3l-1.8-1.8l-0.8-1l-1.6-2.1l-1.4-2.1l-1.1-2.2
			l-0.8-2.4l-0.6-2.4l-0.2-2.6l-0.2-1.3v-1.3l0.2-2.6l0.2-1.3l0.5-2.4l0.8-2.4l1.1-2.1l1.3-2.1l3.7-5.9l3.5-5.9l3.2-6.1l3-6.2
			l1.4-3.2l1.8-3.8l1-1l1.1-0.8l1.3-0.3h0.5l1.4,0.2l1.3,0.6l1,1l0.6,1l1.4,3.4l2.9,6.2l3.2,6.2l3.4,6.1l3.5,5.9l2.6,3.8l1.1,2.2
			l1,2.4l0.6,2.4l0.3,1.3l0.3,2.6v1.3v2.6l-0.3,2.6l-0.6,2.4l-0.8,2.4l-1.3,1.8l-1.3,2.2l-1.4,2.1L57,69.7l-1.9,1.6L53,72.7L50.8,74
			l-2.2,0.8l-2.4,0.8l-2.4,0.5l-2.6,0.2H39.9z M38.8,8.9l-0.2,0.3l-1.3,3.2l-2.9,6.4L32.9,22l-3.4,6.2L26,34.3l-4.9,7.8l-1,1.9
			l-0.6,2.1L19,48.1l-0.3,2.2v1.1v2.2L19,56l0.5,2.1l0.8,2.1l1,1.9l1.1,1.9l1.3,1.8l1.4,1.6l1.6,1.4l1.8,1.3l1.9,1.1l2.1,0.8
			l2.1,0.6l2.1,0.5l2.4,0h1.1h2.1l2.2-0.3l2.1-0.5l2.1-0.8l1.9-1l1.9-1.1l1.8-1.3l1.6-1.6l1.4-1.6l1.3-1.8l1-1.9l0.8-2.1l0.6-2.1
			l0.3-2.1l0.2-2.2v-1.1l-0.2-2.2l-0.3-2.1l-0.6-2.1l-0.8-2.1l-1-1.9l-4.3-6.9l-3.5-6.1L47.1,22l-1.6-3.2l-2.9-6.4l-1.8-3.8
			l-0.5-0.3h-0.5l-0.6,0.2L38.8,8.9z"/>
	</g>
	<g>
		<path class="st0" d="M44.1,23.9h-8.1c-0.6,0-1.1-0.3-1.4-0.8c-0.3-0.6-0.5-1.4-0.2-2.1l4.1-9.1c0.3-0.6,1-1.1,1.6-1.1
			c0.6,0,1.3,0.3,1.6,1.1l4,9.1c0.3,0.6,0.3,1.4-0.2,2.1C45.2,23.6,44.5,23.9,44.1,23.9z M40.1,11.9L40.1,11.9
			c-0.3,0-0.5,0.2-0.6,0.5l0,0l-4.1,9.1c-0.2,0.3,0,0.6,0.2,1c0,0.2,0.2,0.3,0.5,0.3h8.1c0.3,0,0.5-0.2,0.5-0.3c0.2-0.3,0.2-0.6,0-1
			l-4-9.3C40.4,11.9,40.2,11.9,40.1,11.9z M39,12.1L39,12.1L39,12.1z"/>
	</g>
	<g>
		<path d="M37.7,21.3c0,0.5-0.3,0.8-0.8,0.8s-0.8-0.3-0.8-0.8s0.3-0.8,0.8-0.8S37.7,20.8,37.7,21.3z"/>
	</g>
	<g>
		<path d="M43.8,21.3c0,0.5-0.3,0.8-0.8,0.8c-0.5,0-0.8-0.3-0.8-0.8s0.3-0.8,0.8-0.8C43.4,20.5,43.8,20.8,43.8,21.3z"/>
	</g>
</g>
<path d="M45.8,56.7h-3.3c-0.3,0.2-0.7,0.4-1,0.5c-0.6,0.2-1.2,0.4-1.9,0.4c-0.7,0-1.3-0.1-1.9-0.4c-0.4-0.2-0.7-0.3-1-0.5h-3v0.9
	h2.7c1,0.6,2.1,0.9,3.3,0.9c1.2,0,2.3-0.3,3.3-0.9h2.9V56.7z"/>
<path d="M40.5,47.5c-0.2-0.3-0.5-0.6-0.8-0.9c-0.3,0.3-0.5,0.6-0.8,0.9c-1.9,2.3-2.9,4-2.9,5.1c0,1.9,1.6,3.4,3.7,3.4
	c2,0,3.7-1.5,3.7-3.4C43.4,51.5,42.4,49.8,40.5,47.5 M41.7,54.3c-0.5,0.5-1.2,0.8-2,0.8s-1.4-0.2-2-0.8c-0.5-0.5-0.8-1.1-0.8-1.7
	c0-0.4,0.3-1.1,0.8-2.1c0.5-0.8,1.1-1.6,1.9-2.6c0.8,1,1.4,1.8,1.9,2.6c0.5,0.9,0.8,1.6,0.8,2.1C42.4,53.2,42.2,53.8,41.7,54.3"/>
</svg>
