<svg id="图层_1" data-name="图层 1" xmlns="http://www.w3.org/2000/svg" viewBox="0 0 960 960"><defs><style>.cls-1,.cls-2{fill:none;stroke:#000;stroke-miterlimit:10;}.cls-1{stroke-width:40px;}.cls-2{stroke-width:20px;}</style></defs><path class="cls-1" d="M516.15,58.5s26-7,40,31,84,228,131,307,108,196,47,334S571.9,907,473,899.5c-92-7-196.85-84-222.85-123s-86-151-20-287,99-172,133-250,50-139,68-149S487.15,63.5,516.15,58.5Z"/><path class="cls-2" d="M537.15,902.5c-137.32,0-197-87-223-126s-86-151-20-287,99-172,133-250,67-172,85-182"/><ellipse class="cls-2" cx="560" cy="621" rx="147" ry="192.5"/></svg>