<?xml version="1.0" encoding="utf-8"?>
<!-- Generator: Adobe Illustrator 25.0.0, SVG Export Plug-In . SVG Version: 6.00 Build 0)  -->
<svg version="1.1" id="图层_1" xmlns="http://www.w3.org/2000/svg" xmlns:xlink="http://www.w3.org/1999/xlink" x="0px" y="0px"
	 viewBox="0 0 200 200" style="enable-background:new 0 0 200 200;" xml:space="preserve">
<style type="text/css">
	.st0{fill:#FFFFFF;}
</style>
<path class="st0" d="M114.3,68.6c0-0.2,0-0.3-0.1-0.5c0-0.3-0.1-0.5-0.1-0.8c-0.4-1.8-1.1-3.6-2.3-5.2c-4.4-6.2-13.1-7.7-19.4-3.3
	c-4.2,3-6.4,8-5.7,13.1c0.2,1.6,1.6,2.7,3.2,2.5c1.6-0.2,2.7-1.6,2.5-3.2c-0.2-1.5,0-3,0.7-4.4c0.1-0.1,0.2-0.3,0.3-0.4
	c1.4-2.7,4.2-4.3,7.2-4.3c4.5,0,8.2,3.7,8.2,8.2c0,4.5-3.7,8.2-8.2,8.2c-0.2,0-0.5,0-0.7,0.1H52.6c-1.6,0-2.8,1.3-2.8,2.8
	s1.3,2.8,2.8,2.8h48c0.3,0,0.6-0.1,0.8-0.1c7.3-0.4,13-6.5,13-13.8C114.5,69.7,114.4,69.1,114.3,68.6z"/>
<path class="st0" d="M140.8,79.2c-4.4-6.2-13.1-7.7-19.4-3.3c-0.6,0.4-1.2,0.9-1.7,1.4c-0.4,0.4-0.8,0.8-1.2,1.2
	c-0.2,0.2-0.3,0.4-0.4,0.6c-2,2.8-2.9,6.3-2.5,9.9c0.2,1.6,1.6,2.7,3.2,2.5c1.6-0.2,2.7-1.6,2.5-3.2c-0.3-2.6,0.6-5.1,2.4-6.9
	c1.5-1.3,3.4-2.1,5.4-2.1c4.5,0,8.2,3.7,8.2,8.2c0,4.5-3.7,8.2-8.2,8.2c0,0,0,0,0,0s0,0,0,0H52.7c-1.6,0-2.8,1.3-2.8,2.8
	c0,1.6,1.3,2.8,2.8,2.8h76.5c0,0,0,0,0,0s0,0,0,0c3.6,0,6.8-1.4,9.3-3.6c0.2-0.2,0.4-0.3,0.5-0.5c0,0,0,0,0,0
	C144,92.6,144.9,84.9,140.8,79.2z"/>
<path class="st0" d="M125.7,132.6c1-1.9,1.6-4.1,1.6-6.5c0-7.7-6.2-13.9-13.9-13.9l-60.9,0.1c-1.6,0-2.6,1.3-2.6,2.8
	s1.1,2.8,2.6,2.8l60.9-0.1c4.5,0,8.2,3.7,8.2,8.2c0,1.4-0.3,2.6-0.9,3.8l0,0c-2.1,4-7.1,5.5-11.1,3.4c-2.7-1.4-4.3-4.2-4.3-7.2
	c0-1.6-1.3-2.8-2.8-2.8s-2.8,1.3-2.8,2.8c0,2.1,0.5,4.1,1.3,6c0.1,0.2,0.1,0.5,0.2,0.7c2.4,4.5,7.1,7.3,12.2,7.3
	C118.8,140,123.4,137,125.7,132.6C125.7,132.6,125.7,132.6,125.7,132.6L125.7,132.6z"/>
</svg>
