<?xml version="1.0" encoding="utf-8"?>
<!-- Generator: Adobe Illustrator 24.1.0, SVG Export Plug-In . SVG Version: 6.00 Build 0)  -->
<svg version="1.1" id="图层_1" xmlns="http://www.w3.org/2000/svg" xmlns:xlink="http://www.w3.org/1999/xlink" x="0px" y="0px"
	 viewBox="0 0 960 960" style="enable-background:new 0 0 960 960;" xml:space="preserve">
<image style="overflow:visible;enable-background:new    ;" width="500" height="500" xlink:href="500.png"  transform="matrix(1.9269 0 0 1.9269 2255.1721 -1441.8918)">
</image>
<g>
	<g>
		<path d="M283.4,845.7c-21.3,0-42.4-5-61.8-14.7l-0.1,0l-94-47.6C106.9,772.9,94,752,94,728.7v-525c0-28.6,22.3-52.6,50.9-54.6
			l480.7-33.8c34.4-2.5,68.8,1.2,102.3,10.8l89.6,26c28.4,8.2,48.3,34.7,48.3,64.3v497.9c0,35.4-26.5,65.3-61.7,69.7l-505.2,60.8
			C293.9,845.4,288.6,845.7,283.4,845.7z M239.6,795.2c17.1,8.6,36,12,54.9,9.8l504.9-60.8c15.1-1.9,26.5-14.7,26.5-29.9V216.4
			c0-11.9-8-22.6-19.4-25.9l-89.6-26c-28.9-8.3-58.7-11.5-88.4-9.4L147.7,189c-7.7,0.5-13.7,7-13.7,14.7v525c0,8,4.6,15.4,11.6,18.9
			L239.6,795.2z"/>
	</g>
	<g>
		<path d="M286.3,259.7c-17.1,0-34.1-3.5-49.8-10.4l-108.1-46.9l15.9-36.7l108.1,46.9c12.6,5.5,26.5,7.9,40.2,6.8l537.8-39.9l3,39.9
			l-537.8,39.9C292.6,259.6,289.4,259.7,286.3,259.7z"/>
	</g>
	<g>
		<path d="M181.2,652.3c-4.8,0-8.4-5.3-8.4-12.3s3.6-12.3,8.4-12.3c4.8,0,8.4,5.3,8.4,12.3S186,652.3,181.2,652.3z M181.2,633.7
			c-0.6,0-2.4,2.2-2.4,6.3s1.8,6.3,2.4,6.3c0.6,0,2.4-2.2,2.4-6.3S181.8,633.7,181.2,633.7z"/>
	</g>
	<g>
		<path d="M201.1,654.3c-4.8,0-8.4-5.3-8.4-12.3s3.6-12.3,8.4-12.3s8.4,5.3,8.4,12.3S205.9,654.3,201.1,654.3z M201.1,635.7
			c-0.6,0-2.4,2.2-2.4,6.3s1.8,6.3,2.4,6.3s2.4-2.2,2.4-6.3S201.7,635.7,201.1,635.7z"/>
	</g>
	<g>
		<path d="M177.8,707.5c-4.8,0-8.4-5.3-8.4-12.3s3.6-12.3,8.4-12.3c4.8,0,8.4,5.3,8.4,12.3S182.6,707.5,177.8,707.5z M177.8,688.9
			c-0.6,0-2.4,2.2-2.4,6.3s1.8,6.3,2.4,6.3c0.6,0,2.4-2.2,2.4-6.3S178.4,688.9,177.8,688.9z"/>
	</g>
	<g>
		<path d="M199,711c-4.8,0-8.4-5.3-8.4-12.3s3.6-12.3,8.4-12.3s8.4,5.3,8.4,12.3S203.8,711,199,711z M199,692.4
			c-0.6,0-2.4,2.2-2.4,6.3s1.8,6.3,2.4,6.3s2.4-2.2,2.4-6.3S199.6,692.4,199,692.4z"/>
	</g>
	<g>
		<path d="M167.6,678.1c-4.8,0-8.4-5.3-8.4-12.3s3.6-12.3,8.4-12.3s8.4,5.3,8.4,12.3S172.4,678.1,167.6,678.1z M167.6,659.5
			c-0.6,0-2.4,2.2-2.4,6.3s1.8,6.3,2.4,6.3s2.4-2.2,2.4-6.3S168.2,659.5,167.6,659.5z"/>
	</g>
	<g>
		<path d="M187.9,680.9c-4.8,0-8.4-5.3-8.4-12.3c0-7,3.6-12.3,8.4-12.3s8.4,5.3,8.4,12.3C196.3,675.6,192.7,680.9,187.9,680.9z
			 M187.9,662.3c-0.6,0-2.4,2.2-2.4,6.3c0,4.1,1.8,6.3,2.4,6.3s2.4-2.2,2.4-6.3C190.3,664.5,188.5,662.3,187.9,662.3z"/>
	</g>
	<g>
		<path d="M207.8,685.6c-4.8,0-8.4-5.3-8.4-12.3s3.6-12.3,8.4-12.3c4.8,0,8.4,5.3,8.4,12.3S212.6,685.6,207.8,685.6z M207.8,667
			c-0.6,0-2.4,2.2-2.4,6.3s1.8,6.3,2.4,6.3c0.6,0,2.4-2.2,2.4-6.3S208.4,667,207.8,667z"/>
	</g>
	<g>
		<rect x="259" y="246" width="40" height="563"/>
	</g>
	<g>
		<path d="M559.5,633c-36.1,0-65.5-32.5-65.5-72.5s29.4-72.5,65.5-72.5s65.5,32.5,65.5,72.5S595.6,633,559.5,633z M559.5,508
			c-25.1,0-45.5,23.6-45.5,52.5s20.4,52.5,45.5,52.5s45.5-23.6,45.5-52.5S584.6,508,559.5,508z"/>
	</g>
</g>
</svg>
