<?xml version="1.0" encoding="utf-8"?>
<!-- Generator: Adobe Illustrator 24.1.0, SVG Export Plug-In . SVG Version: 6.00 Build 0)  -->
<svg version="1.1" id="图层_1" xmlns="http://www.w3.org/2000/svg" xmlns:xlink="http://www.w3.org/1999/xlink" x="0px" y="0px"
	 viewBox="0 0 80 80" style="enable-background:new 0 0 80 80;" xml:space="preserve">
<style type="text/css">
	.st0{fill:none;}
</style>
<g>
	<path d="M28.4,74.4c-1.8,0-3.6-0.6-5.1-1.7l-11.4-8.4c-0.9-0.7-1.4-1.8-1.3-2.8l4.3-46.5c0.2-1.8,1.6-3.3,3.4-3.5l31.4-3.2
		C52,8,54.3,8.4,56.4,9.3L66.6,14c1.7,0.8,2.8,2.5,2.8,4.3v46.1c0,2-1.4,3.7-3.4,4l-36.3,5.9C29.3,74.4,28.8,74.4,28.4,74.4z
		 M17.9,15.2l-4.3,46.5c0,0.1,0,0.1,0.1,0.2l11.4,8.4c1.2,0.9,2.7,1.3,4.2,1l36.3-5.9c0.5-0.1,0.9-0.5,0.9-1V18.4
		c0-0.7-0.4-1.3-1-1.6L55.1,12c-1.6-0.7-3.4-1-5.1-0.9l-31.4,3.2C18.2,14.5,17.9,14.8,17.9,15.2L17.9,15.2z"/>
</g>
<g>
	<path d="M32.5,22.8c-1.3,0-2.6-0.3-3.8-0.9l-12.6-6.6l1.4-2.7l12.6,6.6c0.9,0.5,1.9,0.7,2.9,0.6l34.4-3.6l0.3,3l-34.4,3.6
		C33.1,22.8,32.8,22.8,32.5,22.8z"/>
</g>
<g>
	<path d="M31.7,43.9c-3,0-6-0.8-8.6-2.3l-9.3-5.4l1.5-2.6l9.3,5.4c2.7,1.5,5.8,2.2,8.9,1.8l34.2-4.5l0.4,3l-34.2,4.5
		C33.1,43.9,32.4,43.9,31.7,43.9z"/>
</g>
<g>
	<path class="st0" d="M31.8,21.3"/>
</g>
<g>
	<path d="M37.7,66.1c-1.3,0-2.6-0.5-3.6-1.3c-1.2-1-1.9-2.6-1.9-4.2V42.3h3v18.2c0,0.7,0.3,1.4,0.9,1.9c0.6,0.5,1.3,0.7,2,0.6
		l21.8-3.4c1-0.1,1.7-1,1.7-1.9l0.2-19.5l3,0l-0.2,19.5c0,2.4-1.8,4.5-4.2,4.9L38.5,66C38.3,66,38,66.1,37.7,66.1z"/>
</g>
</svg>
