<?xml version="1.0" encoding="utf-8"?>
<!-- Generator: Adobe Illustrator 24.1.0, SVG Export Plug-In . SVG Version: 6.00 Build 0)  -->
<svg version="1.1" id="图层_1" xmlns="http://www.w3.org/2000/svg" xmlns:xlink="http://www.w3.org/1999/xlink" x="0px" y="0px"
	 viewBox="0 0 960 960" style="enable-background:new 0 0 960 960;" xml:space="preserve">
<style type="text/css">
	.st0{fill:none;stroke:#000000;stroke-width:20;stroke-miterlimit:10;}
	.st1{fill:none;stroke:#000000;stroke-width:40;stroke-miterlimit:10;}
</style>
<path class="st0" d="M178.4,166.9l-24.3,2.1c-10.6,0.9-20,7.1-25.1,16.4l-13.4,24.4c-5.5,10-5.2,22.2,0.7,31.9l10.6,17.5
	c6.3,10.4,17.9,16.2,30,15.2l24.3-2.1c10.6-0.9,20-7.1,25.1-16.4l13.4-24.4c5.5-10,5.2-22.2-0.7-31.9l-10.6-17.4
	C202.1,171.7,190.5,165.9,178.4,166.9z"/>
<path class="st0" d="M178.9,272.6l-24.2,1.3c-10.9,0.6-20.8,6.7-26.1,16.2l-12.9,23c-5.6,9.9-5.4,22.1,0.4,31.9l11.2,18.8
	c6,10.1,17.2,16.1,29,15.5l24.2-1.3c10.9-0.6,20.8-6.7,26.1-16.2l12.9-23c5.6-9.9,5.4-22.1-0.4-31.9L208,288.1
	C201.9,277.9,190.8,272,178.9,272.6z"/>
<path class="st0" d="M179.5,379.6l-24.2,0.4c-11.2,0.2-21.5,6.3-27.1,16l-12.3,21.6c-5.7,9.9-5.6,22,0.1,31.9l11.8,20.2
	c5.8,10,16.6,16,28.1,15.8l24.1-0.4c11.2-0.2,21.5-6.3,27.1-16l12.3-21.6c5.7-9.9,5.6-22-0.1-31.9l-11.8-20.2
	C201.7,385.4,191,379.4,179.5,379.6z"/>
<path class="st0" d="M179.5,485.5l-24.2,0.5c-11.2,0.2-21.5,6.3-27.1,16l-12.3,21.6c-5.7,9.9-5.6,22,0.1,31.9l11.8,20.2
	c5.8,10,16.6,16,28.1,15.8L180,591c11.2-0.2,21.5-6.3,27.1-16l12.3-21.6c5.7-9.9,5.6-22-0.1-31.9l-11.8-20.2
	C201.7,491.4,191,485.4,179.5,485.5z"/>
<path class="st0" d="M180,593.4l-24.1-0.4c-11.6-0.2-22.3,5.9-28.2,15.8L116.1,629c-5.7,9.9-5.8,22-0.1,31.9l12.3,21.5
	c5.6,9.8,15.9,15.9,27.2,16.1l24,0.4c11.6,0.2,22.3-5.9,28.2-15.8l11.8-20.1c5.7-9.9,5.8-22,0.1-31.9l-12.3-21.5
	C201.6,599.8,191.3,593.6,180,593.4z"/>
<path class="st0" d="M180,700l-24-0.4c-11.6-0.2-22.4,5.9-28.2,15.9l-11.7,20c-5.8,9.9-5.8,22.1-0.1,32l12.3,21.5
	c5.6,9.8,15.9,15.9,27.2,16.1l24,0.4c11.6,0.2,22.4-5.9,28.2-15.9l11.7-20c5.8-9.9,5.8-22.1,0.1-32l-12.3-21.5
	C201.6,706.4,191.3,700.3,180,700z"/>
<line class="st0" x1="228.6" y1="317.8" x2="886.9" y2="326"/>
<line class="st0" x1="228.6" y1="427.9" x2="886.9" y2="436.1"/>
<line class="st0" x1="228.6" y1="534.6" x2="886.9" y2="538.1"/>
<line class="st0" x1="886.9" y1="646" x2="228.6" y2="645.8"/>
<line class="st0" x1="228.6" y1="752" x2="882.2" y2="753.1"/>
<line class="st0" x1="886.9" y1="228.8" x2="228.6" y2="220.6"/>
<path class="st0" d="M863.5,165.5l16.3,43.9c4.6,12.5,4.6,26.2-0.1,38.6l-4.6,12.2c-5.1,13.6-4.7,28.7,1.2,42l0,0
	c6.7,15.1,6.4,32.4-1,47.1l-3.2,6.5c-7.6,15.2-7.8,33.1-0.4,48.4l3.6,7.6c7.4,15.3,7.2,33.2-0.4,48.4L873,464
	c-8.2,16.3-7.7,35.7,1.2,51.6l0.2,0.3c7.9,14.1,9.2,31,3.6,46.1l-5.8,15.6c-4.9,13-4.6,27.4,0.7,40.3l4.7,11.3
	c6,14.4,5.5,30.6-1.2,44.7l-1.6,3.4c-7.1,15-7.1,32.4,0,47.4l2.7,5.8c6.1,12.7,7,27.2,2.7,40.6l-16.8,35.4"/>
<path class="st1" d="M102.1,82.7v57c0,10.3,8.3,18.7,18.6,18.7c0.4,0,0.8,0,1.3,0c25.8-1.7,67.5-4.5,69.2-4.5
	c2.1,0,593.9,12.1,690.1,14.7c10.2,0.3,18.8-7.8,19.2-18l2.2-63.3c0.4-10.3-7.7-18.9-18-19.3c-0.1,0-0.1,0-0.2,0L192.3,56.6
	c-1.6,0-3.2,0-4.8,0.2l-68.8,7.3C109.2,65.1,102.1,73.1,102.1,82.7z"/>
<line class="st0" x1="191.1" y1="51.8" x2="191.1" y2="153.8"/>
<path class="st1" d="M102.1,824.4v62c0,7.6,5.4,14.2,12.9,15.6c24.3,4.6,74.3,4.6,76.1,4.6c2,0,554.7,0.1,675,1.5
	c18.8,0.2,34.3-14.6,34.9-33.3l1.7-47.7c0.3-10.3-7.7-18.9-18-19.3c-0.1,0-0.1,0-0.2,0l-692.1,1.6c-1.1,0-2.1,0-3.2,0.1
	c-1.1,0.1-2.1,0-3.2-0.1l-65.6-0.7c-8.7-1.3-16.8,4.7-18.1,13.3C102.1,822.8,102.1,823.6,102.1,824.4z"/>
<line class="st0" x1="191.1" y1="794.7" x2="191.1" y2="896.6"/>
</svg>
