<?xml version="1.0" encoding="utf-8"?>
<!-- Generator: Adobe Illustrator 24.1.0, SVG Export Plug-In . SVG Version: 6.00 Build 0)  -->
<svg version="1.1" id="图层_1" xmlns="http://www.w3.org/2000/svg" xmlns:xlink="http://www.w3.org/1999/xlink" x="0px" y="0px"
	 viewBox="0 0 80 80" style="enable-background:new 0 0 80 80;" xml:space="preserve">
<path d="M74.4,24.4l-33.4,0v-3.1c0-1.1,0.9-1.9,1.9-1.9h9c2.2,0,3.9-1.8,3.9-3.9v-2.7c0-0.6-0.4-1-1-1s-1,0.4-1,1v2.7
	c0,1.1-0.9,1.9-1.9,1.9h-9c-2.2,0-3.9,1.8-3.9,3.9v3.1l-33.5,0c-0.7,0-1.2,0.5-1.2,1.2v24.3c0,0.7,0.5,1.2,1.2,1.2l0,0h68.9
	c0.7,0,1.2-0.5,1.2-1.2V33.9c0,0,0-0.1,0-0.1v-8.1C75.6,25,75.1,24.4,74.4,24.4z M65.8,26.8h7.4v5.7h-7.4V26.8z M55.9,26.8h7.5v5.7
	h-7.5V26.8z M46.1,26.8h7.5v5.7h-7.5V26.8z M45.5,34.9h6.2v5.7h-6.2V34.9z M36.2,26.8h7.5v5.7h-7.5V26.8z M43.1,34.9v5.7h-6.2v-5.7
	H43.1z M26.4,26.8h7.5v5.7h-7.5V26.8z M34.5,34.9v5.7h-6.2v-5.7H34.5z M16.6,26.8H24v5.7h-7.5V26.8z M15.4,34.9h1.9v5.7l-10.5,0
	v-5.7L15.4,34.9L15.4,34.9z M6.7,26.8h7.5v5.7H6.7V26.8z M18.1,48.8H6.7V43h11.4V48.8z M19.6,34.9h5.6h0.7v5.7h-6.2V34.9z
	 M59.5,48.8h-39V43h39V48.8z M60.4,40.6h-6.2v-5.7h0.6h5.6V40.6z M73.2,48.8H61.9V43h11.4V48.8z M73.2,40.6H62.8v-5.7h1.8h0h8.6
	V40.6z"/>
</svg>
