<?xml version="1.0" encoding="utf-8"?>
<!-- Generator: Adobe Illustrator 24.1.0, SVG Export Plug-In . SVG Version: 6.00 Build 0)  -->
<svg version="1.1" id="图层_1" xmlns="http://www.w3.org/2000/svg" xmlns:xlink="http://www.w3.org/1999/xlink" x="0px" y="0px"
	 viewBox="0 0 960 960" style="enable-background:new 0 0 960 960;" xml:space="preserve">
<g>
	<path d="M319.6,305.9c-19.2,0-38.4-2.5-56.7-7.5l-164-44.5v-62.6c0-22.2,8-43.7,22.6-60.5c14.6-16.8,34.7-27.8,56.7-31l424.5-60.6
		c35-5.1,71.5-2.1,105.5,8.7l108.3,34.5c30.2,9.7,50.5,37.5,50.5,69.2v49.6c0,16-11.5,29.4-27.4,31.8l-0.1,0l-489.1,70.7
		C340.2,305.2,329.9,305.9,319.6,305.9z M138.9,223.3l134.4,36.5c22.9,6.2,47.6,7.7,71.3,4.3L827,194.4v-42.8
		c0-14.2-9.1-26.7-22.7-31.1L696,86.1c-28.3-9-58.6-11.5-87.7-7.3l-424.5,60.6c-25.6,3.7-44.9,26-44.9,51.9V223.3z"/>
</g>
<g>
	<path d="M340,931c-32.6,0-65.1-5.5-96-16.3l-105-36.9c-24-8.4-40.1-31.1-40.1-56.6v-576h40v576c0,8.5,5.3,16,13.3,18.8l105,36.9
		c41.1,14.4,85.4,17.9,128.2,9.9l422.7-78.4c10.9-2,18.8-11.6,18.8-22.6V175.9h40v609.9c0,30.3-21.7,56.4-51.5,62l-422.7,78.4
		C375.3,929.4,357.6,931,340,931z"/>
</g>
<g>
	<rect x="306" y="286.9" width="20" height="620.2"/>
</g>
<g>
	<path d="M217.2,623c-23.7,0-43-23.5-43-52.3s19.3-52.3,43-52.3s43,23.5,43,52.3S240.9,623,217.2,623z M217.2,538.4
		c-12.5,0-23,14.8-23,32.3s10.5,32.3,23,32.3s23-14.8,23-32.3S229.7,538.4,217.2,538.4z"/>
</g>
<g>
	<path d="M217.2,759.4c-23.7,0-43-23.5-43-52.3c0-28.8,19.3-52.3,43-52.3s43,23.5,43,52.3C260.2,735.9,240.9,759.4,217.2,759.4z
		 M217.2,674.8c-12.5,0-23,14.8-23,32.3s10.5,32.3,23,32.3s23-14.8,23-32.3S229.7,674.8,217.2,674.8z"/>
</g>
</svg>
